<svg xmlns="http://www.w3.org/2000/svg"  viewBox="0 0 64 64" width="96px" height="96px"><linearGradient id="NHnEaFgLTeQSIStj5PmX3a" x1="32" x2="32" y1="9" y2="55" gradientUnits="userSpaceOnUse"><stop offset="0" stop-color="#1a6dff"/><stop offset="1" stop-color="#c822ff"/></linearGradient><path fill="url(#NHnEaFgLTeQSIStj5PmX3a)" d="M50,9H14c-2.757,0-5,2.243-5,5v36c0,2.757,2.243,5,5,5h36c2.757,0,5-2.243,5-5V14	C55,11.243,52.757,9,50,9z M53,50c0,1.654-1.346,3-3,3H14c-1.654,0-3-1.346-3-3V14c0-1.654,1.346-3,3-3h36c1.654,0,3,1.346,3,3V50z"/><linearGradient id="NHnEaFgLTeQSIStj5PmX3b" x1="32" x2="32" y1="15.875" y2="48.376" gradientUnits="userSpaceOnUse"><stop offset="0" stop-color="#6dc7ff"/><stop offset="1" stop-color="#e6abff"/></linearGradient><path fill="url(#NHnEaFgLTeQSIStj5PmX3b)" d="M35.125,16l-0.064,16.162L29,16h-6v32c0,0,3-0.5,6-0.5V31.75l6,15.75c3,0,6,0.5,6,0.5V16	H35.125z"/></svg>